<?xml version="1.0" standalone="no"?>
<!DOCTYPE svg PUBLIC "-//W3C//DTD SVG 20010904//EN"
 "http://www.w3.org/TR/2001/REC-SVG-20010904/DTD/svg10.dtd">
<svg version="1.0" xmlns="http://www.w3.org/2000/svg"
 width="82.000000pt" height="56.000000pt" viewBox="0 0 82.000000 56.000000"
 preserveAspectRatio="xMidYMid meet" >

<g transform="translate(0.000000,56.000000) scale(0.100000,-0.100000)"
 stroke="none">
<path d="M328 481 c-81 -52 -113 -126 -49 -119 19 2 26 -2 26 -14 0 -10 3 -18
8 -18 4 0 12 0 18 0 6 0 9 6 6 14 -6 16 11 36 30 36 7 0 13 -7 13 -15 0 -30
-44 -107 -67 -118 -27 -12 -30 -27 -5 -27 29 0 70 51 90 110 16 46 26 59 60
78 44 25 52 42 28 61 -18 15 -51 0 -79 -36 -18 -22 -47 -32 -47 -15 0 5 7 17
15 28 15 20 20 64 7 64 -4 0 -29 -13 -54 -29z m16 -40 c-24 -36 -64 -61 -64
-40 0 11 71 79 83 79 4 0 -4 -18 -19 -39z m121 -1 c-3 -5 -11 -10 -16 -10 -6
0 -7 5 -4 10 3 6 11 10 16 10 6 0 7 -4 4 -10z"/>
<path d="M165 476 c-17 -7 -36 -20 -44 -29 -19 -23 -7 -47 19 -40 12 3 19 11
16 18 -2 7 7 18 21 24 48 22 38 0 -27 -58 -57 -51 -63 -60 -51 -75 16 -19 36
-20 79 -5 27 9 49 35 39 46 -2 2 -23 -4 -47 -12 -24 -8 -45 -13 -47 -11 -2 2
19 20 46 39 58 42 72 63 60 95 -10 25 -21 27 -64 8z"/>
<path d="M458 389 c-24 -9 -44 -36 -34 -46 2 -3 13 0 24 6 12 6 30 11 42 11
21 0 21 -1 -6 -32 -36 -44 -58 -98 -45 -111 14 -14 41 9 41 35 0 24 26 76 52
105 11 12 17 26 13 32 -8 13 -50 13 -87 0z"/>
<path d="M231 182 c-25 -49 -37 -112 -22 -112 6 0 11 9 11 19 0 30 11 51 26
51 8 0 14 5 14 11 0 5 -4 7 -10 4 -5 -3 -10 -2 -10 4 0 18 12 41 22 41 5 0 6
-4 3 -10 -3 -5 -2 -10 3 -10 12 0 23 26 15 34 -15 15 -34 3 -52 -32z"/>
<path d="M714 175 c-5 -11 -14 -14 -33 -10 -36 8 -71 -26 -51 -50 10 -12 10
-15 -1 -15 -10 0 -10 -3 -1 -12 19 -19 39 6 22 27 -11 13 -11 19 4 33 16 16
17 16 10 -3 -6 -16 -5 -18 7 -7 21 19 29 14 29 -18 0 -30 21 -42 35 -20 3 6
-1 10 -10 10 -12 0 -15 5 -11 16 3 9 6 18 6 20 0 2 7 4 15 4 19 0 19 7 0 26
-13 14 -16 14 -21 -1z"/>
<path d="M416 151 c-33 -36 -11 -91 22 -56 16 16 16 17 -5 10 -14 -4 -23 -2
-23 4 0 6 9 11 19 11 15 0 31 18 31 35 0 13 -31 10 -44 -4z m24 -11 c0 -5 -5
-10 -11 -10 -5 0 -7 5 -4 10 3 6 8 10 11 10 2 0 4 -4 4 -10z"/>
<path d="M275 140 c-19 -21 -14 -50 9 -50 19 0 46 38 39 56 -7 20 -27 17 -48
-6z m29 -15 c-4 -8 -10 -15 -15 -15 -4 0 -6 7 -3 15 4 8 10 15 15 15 4 0 6 -7
3 -15z"/>
<path d="M342 121 l-1 -36 15 28 c8 15 21 27 29 27 8 0 15 4 15 8 0 5 -13 9
-28 9 -26 0 -29 -4 -30 -36z"/>
<path d="M476 139 c-8 -12 -12 -28 -9 -35 6 -16 39 -19 48 -4 3 6 -3 10 -14
10 -14 0 -19 5 -15 15 4 8 12 15 20 15 8 0 14 5 14 10 0 18 -28 11 -44 -11z"/>
<path d="M544 134 c-13 -19 -14 -28 -5 -37 8 -8 14 -8 23 1 8 8 15 8 24 1 8
-7 14 -7 19 1 3 5 1 10 -5 10 -6 0 -10 6 -9 13 6 44 -21 51 -47 11z m36 2 c0
-2 -7 -9 -15 -16 -13 -11 -14 -10 -9 4 5 14 24 23 24 12z"/>
</g>
</svg>
